<svg width="24" height="24" viewBox="0 0 24 24" fill="none" xmlns="http://www.w3.org/2000/svg">
<path d="M21.993 7.95047C21.9914 7.87827 21.9817 7.80648 21.964 7.73647C21.957 7.71147 21.943 7.68747 21.934 7.66247C21.913 7.60547 21.894 7.54947 21.864 7.49747C21.848 7.47047 21.826 7.44847 21.807 7.42247C21.775 7.37747 21.744 7.33147 21.705 7.29247C21.682 7.27047 21.652 7.25247 21.627 7.23147C21.588 7.19947 21.552 7.16447 21.507 7.13747C21.503 7.13447 21.498 7.13447 21.493 7.13147L21.485 7.12547L12.506 2.13547C12.3576 2.05319 12.1908 2.00994 12.0211 2.00977C11.8515 2.00959 11.6845 2.0525 11.536 2.13447L2.515 7.12447C2.512 7.12747 2.509 7.13147 2.504 7.13447L2.494 7.13847C2.459 7.15847 2.433 7.18747 2.4 7.21147C2.364 7.23847 2.326 7.26247 2.294 7.29347C2.264 7.32447 2.241 7.36047 2.215 7.39547C2.188 7.43047 2.158 7.46147 2.136 7.49947C2.11 7.54247 2.096 7.59147 2.077 7.63847C2.063 7.67147 2.045 7.70247 2.036 7.73847C2.01873 7.8072 2.00901 7.87762 2.007 7.94847C2.006 7.96547 2 7.98047 2 7.99847V16.0005C2 16.3635 2.197 16.6985 2.515 16.8745L11.493 21.8615L11.494 21.8625L11.496 21.8635L11.516 21.8745C11.559 21.8985 11.606 21.9115 11.651 21.9285C11.683 21.9415 11.714 21.9585 11.748 21.9675C11.914 22.0103 12.088 22.0103 12.254 21.9675C12.287 21.9585 12.318 21.9415 12.351 21.9285C12.396 21.9115 12.443 21.8995 12.486 21.8745L12.506 21.8635L12.508 21.8625L12.509 21.8615L21.487 16.8745C21.803 16.6985 22 16.3635 22 16.0005V7.99847C22 7.98147 21.994 7.96747 21.993 7.95047ZM11.972 11.8725L5.058 8.00547L7.82 6.47747L14.654 10.3825L11.972 11.8725ZM12.02 4.15347L18.941 8.00047L16.697 9.24747L9.867 5.34447L12.02 4.15347ZM13 19.3015L13.002 13.6225L16 11.9445V15.0005L18 14.0005V10.8255L20 9.70647V15.4115L13 19.3015Z" fill="white"/>
</svg>
