<svg width="21" height="24" viewBox="0 0 21 24" fill="none" xmlns="http://www.w3.org/2000/svg">
<g clip-path="url(#clip0_83_882)">
<path d="M5.77873 23.1865L6.19467 20.5444L5.26814 20.523H0.843842L3.9185 1.0276C3.92804 0.968743 3.95906 0.913867 4.00439 0.874896C4.04973 0.835926 4.10778 0.814453 4.16823 0.814453H11.6282C14.1048 0.814453 15.8139 1.32981 16.7063 2.34701C17.1246 2.8242 17.391 3.32285 17.5199 3.87162C17.6551 4.44742 17.6574 5.13536 17.5254 5.97441L17.5159 6.03565V6.57328L17.9342 6.81028C18.2865 6.99717 18.5665 7.21111 18.7812 7.45607C19.1391 7.86406 19.3705 8.3826 19.4684 8.99737C19.5694 9.62964 19.536 10.382 19.3705 11.2338C19.1797 12.2136 18.8711 13.067 18.4543 13.7652C18.071 14.4086 17.5827 14.9423 17.0029 15.3559C16.4494 15.7487 15.7916 16.047 15.048 16.2379C14.3275 16.4255 13.5059 16.5202 12.6049 16.5202H12.0243C11.6091 16.5202 11.2059 16.6697 10.8894 16.9377C10.572 17.2113 10.3621 17.5851 10.2977 17.9939L10.2539 18.2317L9.51906 22.8882L9.48565 23.0592C9.47691 23.1133 9.4618 23.1403 9.43953 23.1586C9.41965 23.1753 9.39101 23.1865 9.36318 23.1865H5.77873Z" fill="#253B80"/>
<path d="M18.3302 6.09766C18.3079 6.24002 18.2824 6.38556 18.2538 6.53508C17.27 11.5861 13.9043 13.331 9.60564 13.331H7.41695C6.89125 13.331 6.44827 13.7127 6.36635 14.2313L5.24576 21.3381L4.92843 23.3527C4.87515 23.693 5.1376 24 5.48117 24H9.36307C9.82276 24 10.2133 23.666 10.2856 23.2127L10.3238 23.0154L11.0547 18.3772L11.1016 18.1227C11.1732 17.6678 11.5645 17.3338 12.0242 17.3338H12.6047C16.3658 17.3338 19.31 15.8068 20.1705 11.388C20.53 9.54213 20.3439 8.00083 19.3927 6.91682C19.1048 6.58995 18.7477 6.31875 18.3302 6.09766Z" fill="#179BD7"/>
<path d="M17.301 5.6871C17.1507 5.64336 16.9956 5.60359 16.8366 5.5678C16.6767 5.53281 16.5129 5.50179 16.3443 5.47475C15.7541 5.37932 15.1076 5.33398 14.4148 5.33398H8.56775C8.42379 5.33398 8.287 5.36659 8.16452 5.42544C7.89491 5.55508 7.6945 5.81037 7.64598 6.12293L6.40212 14.0012L6.36633 14.2311C6.44825 13.7126 6.89124 13.3308 7.41693 13.3308H9.60562C13.9043 13.3308 17.27 11.5851 18.2538 6.5349C18.2832 6.38538 18.3079 6.23984 18.3301 6.09748C18.0812 5.96546 17.8116 5.85253 17.5213 5.75629C17.4497 5.73243 17.3758 5.70937 17.301 5.6871Z" fill="#222D65"/>
<path d="M7.64608 6.12307C7.69459 5.81052 7.89501 5.55522 8.16462 5.42638C8.28789 5.36753 8.42389 5.33492 8.56784 5.33492H14.4149C15.1077 5.33492 15.7542 5.38026 16.3444 5.47569C16.513 5.50273 16.6768 5.53375 16.8367 5.56874C16.9957 5.60453 17.1508 5.6443 17.3011 5.68804C17.3759 5.71031 17.4498 5.73337 17.5222 5.75644C17.8125 5.85267 18.0821 5.9664 18.331 6.09762C18.6237 4.23104 18.3287 2.96014 17.3194 1.80932C16.2068 0.5424 14.1986 0 11.629 0H4.16899C3.64409 0 3.19633 0.381748 3.11521 0.901084L0.00794419 20.5969C-0.0532945 20.9866 0.247332 21.3381 0.640214 21.3381H5.24584L6.40222 14.0014L7.64608 6.12307Z" fill="#253B80"/>
</g>
<defs>
<clipPath id="clip0_83_882">
<rect width="20.3411" height="24" fill="white"/>
</clipPath>
</defs>
</svg>
