<svg width="155" height="54" viewBox="0 0 155 54" fill="none" xmlns="http://www.w3.org/2000/svg">
<path d="M139.656 22.7805L153.474 14.8013L155 17.4807L141.197 25.4488V43.4391L141.056 43.5205L124.054 53.3378L123.912 53.2552L108.497 44.3273L92.9169 53.3597L81.0159 46.4529L82.5555 43.7833L82.801 43.9239L92.9169 49.7652L106.822 41.7354H110.171L124.076 49.7652L138.115 41.6589V25.4488L124.076 17.3426L110.199 25.3551H106.954V23.6317L122.534 14.6742V0H125.617V14.6742L139.656 22.7805Z" fill="#6D727B"/>
<path d="M17.7756 27.2956V39.748H14.8741V32.0501C14.8741 31.8564 14.8741 31.4468 14.9789 30.7227C14.7149 31.3259 14.3201 31.8811 14.1881 32.0266L9.07099 38.2516H8.43936L3.3222 32.002C2.84848 31.4222 2.66344 31.0841 2.50553 30.7227L2.58449 32.0501V39.748H0V27.2956H2.58449L8.99327 34.8245L15.2701 27.2956H17.7756Z" fill="white"/>
<path d="M37.0598 27.2956V29.42H26.3V32.1944H32.5767V34.3175H26.3V37.4794H37.1918V39.748H23.1357V27.2956H37.0598Z" fill="white"/>
<path d="M45.2698 27.2956V32.1229H55.1858V27.2956H58.3514V39.748H55.1858V34.3903H45.2698V39.748H42.1055V27.2956H45.2698Z" fill="white"/>
<path d="M74.633 34.7764L71.6784 29.7086L68.619 34.7764H74.633ZM73.3402 27.2956L81.1467 39.748H77.5864L75.9765 37.0451H67.3274L65.7705 39.748H62.5803L70.2807 27.2956H73.3402Z" fill="white"/>
<path d="M97.11 34.6321C97.5591 34.9701 97.506 34.8492 98.6669 35.9829L98.5349 33.8364V27.2956H101.383V39.748H99.2208L89.2246 32.0501C89.1468 31.9773 88.5399 31.5196 88.0908 31.036C88.1167 31.374 88.1439 31.7121 88.1698 32.0501C88.1698 32.1463 88.1969 32.2672 88.1969 32.3634C88.2228 32.678 88.2228 32.7742 88.2228 33.0148V39.748H85.3756V27.2956H87.5369L97.11 34.6321Z" fill="white"/>
<path d="M110.02 39.748H106.856V27.2956H110.02V39.748Z" fill="white"/>
<path d="M118.612 32.4843L126.156 27.2956H130.745L121.725 33.1604L131.852 39.748H126.762L118.612 34.2706V39.748H115.448V27.2956H118.612V32.4843Z" fill="white"/>
</svg>
