<svg width="22" height="24" viewBox="0 0 22 24" fill="none" xmlns="http://www.w3.org/2000/svg">
<g clip-path="url(#clip0_75_665)">
<path d="M6.60822 23.1865L7.02417 20.5444L6.09764 20.523H1.67334L4.748 1.0276C4.75754 0.968743 4.78856 0.913867 4.83389 0.874896C4.87923 0.835926 4.93728 0.814453 4.99773 0.814453H12.4577C14.9343 0.814453 16.6434 1.32981 17.5358 2.34701C17.9541 2.8242 18.2205 3.32285 18.3494 3.87162C18.4846 4.44742 18.4869 5.13536 18.3549 5.97441L18.3454 6.03565V6.57328L18.7637 6.81028C19.116 6.99717 19.396 7.21111 19.6107 7.45607C19.9686 7.86406 20.2 8.3826 20.2979 8.99737C20.3989 9.62964 20.3655 10.382 20.2 11.2338C20.0092 12.2136 19.7006 13.067 19.2838 13.7652C18.9005 14.4086 18.4122 14.9423 17.8324 15.3559C17.2789 15.7487 16.6211 16.047 15.8775 16.2379C15.157 16.4255 14.3354 16.5202 13.4344 16.5202H12.8538C12.4386 16.5202 12.0354 16.6697 11.7189 16.9377C11.4015 17.2113 11.1916 17.5851 11.1272 17.9939L11.0834 18.2317L10.3486 22.8882L10.3152 23.0592C10.3064 23.1133 10.2913 23.1403 10.269 23.1586C10.2491 23.1753 10.2205 23.1865 10.1927 23.1865H6.60822Z" fill="#253B80"/>
<path d="M19.1598 6.09766C19.1376 6.24002 19.1121 6.38556 19.0835 6.53508C18.0997 11.5861 14.734 13.331 10.4353 13.331H8.24663C7.72093 13.331 7.27795 13.7127 7.19603 14.2313L6.07544 21.3381L5.75811 23.3527C5.70483 23.693 5.96728 24 6.31085 24H10.1927C10.6524 24 11.0429 23.666 11.1153 23.2127L11.1535 23.0154L11.8844 18.3772L11.9313 18.1227C12.0029 17.6678 12.3942 17.3338 12.8538 17.3338H13.4344C17.1954 17.3338 20.1397 15.8068 21.0002 11.388C21.3597 9.54213 21.1736 8.00083 20.2224 6.91682C19.9345 6.58995 19.5774 6.31875 19.1598 6.09766Z" fill="#179BD7"/>
<path d="M18.1307 5.6871C17.9804 5.64336 17.8253 5.60359 17.6663 5.5678C17.5064 5.53281 17.3426 5.50179 17.174 5.47475C16.5839 5.37932 15.9373 5.33398 15.2446 5.33398H9.39746C9.25351 5.33398 9.11671 5.36659 8.99424 5.42544C8.72463 5.55508 8.52421 5.81037 8.4757 6.12293L7.23183 14.0012L7.19604 14.2311C7.27796 13.7126 7.72095 13.3308 8.24665 13.3308H10.4353C14.734 13.3308 18.0997 11.5851 19.0835 6.5349C19.1129 6.38538 19.1376 6.23984 19.1599 6.09748C18.9109 5.96546 18.6413 5.85253 18.351 5.75629C18.2795 5.73243 18.2055 5.70937 18.1307 5.6871Z" fill="#222D65"/>
<path d="M8.47567 6.12307C8.52418 5.81052 8.7246 5.55522 8.99421 5.42638C9.11748 5.36753 9.25348 5.33492 9.39743 5.33492H15.2445C15.9372 5.33492 16.5838 5.38026 17.174 5.47569C17.3426 5.50273 17.5064 5.53375 17.6662 5.56874C17.8253 5.60453 17.9804 5.6443 18.1307 5.68804C18.2055 5.71031 18.2794 5.73337 18.3518 5.75644C18.6421 5.85267 18.9117 5.9664 19.1606 6.09762C19.4533 4.23104 19.1582 2.96014 18.149 1.80932C17.0364 0.5424 15.0282 0 12.4586 0H4.99858C4.47368 0 4.02592 0.381748 3.9448 0.901084L0.837534 20.5969C0.776295 20.9866 1.07692 21.3381 1.4698 21.3381H6.07543L7.23181 14.0014L8.47567 6.12307Z" fill="#253B80"/>
</g>
<defs>
<clipPath id="clip0_75_665">
<rect width="20.3411" height="24" fill="white" transform="translate(0.82959)"/>
</clipPath>
</defs>
</svg>
