<svg width="19" height="18" viewBox="0 0 19 18" fill="none" xmlns="http://www.w3.org/2000/svg">
<g clip-path="url(#clip0_135_616)">
<path d="M16.8965 12.26L14.3565 11.97C13.7465 11.9 13.1465 12.11 12.7165 12.54L10.8765 14.38C8.04654 12.94 5.72654 10.63 4.28654 7.79001L6.13654 5.94001C6.56654 5.51001 6.77654 4.91001 6.70654 4.30001L6.41654 1.78001C6.29654 0.77001 5.44654 0.0100098 4.42654 0.0100098H2.69654C1.56654 0.0100098 0.626545 0.95001 0.696545 2.08001C1.22654 10.62 8.05654 17.44 16.5865 17.97C17.7165 18.04 18.6565 17.1 18.6565 15.97V14.24C18.6665 13.23 17.9065 12.38 16.8965 12.26Z" fill="#EBEBEB"/>
</g>
<defs>
<clipPath id="clip0_135_616">
<rect width="18" height="18" fill="white" transform="translate(0.666504)"/>
</clipPath>
</defs>
</svg>
