<?xml version="1.0" encoding="UTF-8"?>
<svg xmlns="http://www.w3.org/2000/svg" xmlns:xlink="http://www.w3.org/1999/xlink" width="24px" height="24px" viewBox="0 0 24 24" version="1.1">
<defs>
<linearGradient id="linear0" gradientUnits="userSpaceOnUse" x1="1.464" y1="14.536" x2="14.536" y2="1.464" gradientTransform="matrix(1.5,0,0,1.5,0,0)">
<stop offset="0" style="stop-color:rgb(100%,75.686275%,2.745098%);stop-opacity:1;"/>
<stop offset="0.507" style="stop-color:rgb(95.686275%,26.27451%,21.176471%);stop-opacity:1;"/>
<stop offset="0.99" style="stop-color:rgb(61.176471%,15.294118%,69.019608%);stop-opacity:1;"/>
</linearGradient>
<linearGradient id="linear1" gradientUnits="userSpaceOnUse" x1="5.172" y1="10.828" x2="10.828" y2="5.172" gradientTransform="matrix(1.5,0,0,1.5,0,0)">
<stop offset="0" style="stop-color:rgb(100%,75.686275%,2.745098%);stop-opacity:1;"/>
<stop offset="0.507" style="stop-color:rgb(95.686275%,26.27451%,21.176471%);stop-opacity:1;"/>
<stop offset="0.99" style="stop-color:rgb(61.176471%,15.294118%,69.019608%);stop-opacity:1;"/>
</linearGradient>
<linearGradient id="linear2" gradientUnits="userSpaceOnUse" x1="11.923" y1="4.077" x2="12.677" y2="3.323" gradientTransform="matrix(1.5,0,0,1.5,0,0)">
<stop offset="0" style="stop-color:rgb(100%,75.686275%,2.745098%);stop-opacity:1;"/>
<stop offset="0.507" style="stop-color:rgb(95.686275%,26.27451%,21.176471%);stop-opacity:1;"/>
<stop offset="0.99" style="stop-color:rgb(61.176471%,15.294118%,69.019608%);stop-opacity:1;"/>
</linearGradient>
</defs>
<g id="surface1">
<path style=" stroke:none;fill-rule:nonzero;fill:url(#linear0);" d="M 16.5 0 L 7.5 0 C 3.359375 0 0 3.359375 0 7.5 L 0 16.5 C 0 20.640625 3.359375 24 7.5 24 L 16.5 24 C 20.640625 24 24 20.640625 24 16.5 L 24 7.5 C 24 3.359375 20.640625 0 16.5 0 Z M 21.75 16.5 C 21.75 19.394531 19.394531 21.75 16.5 21.75 L 7.5 21.75 C 4.605469 21.75 2.25 19.394531 2.25 16.5 L 2.25 7.5 C 2.25 4.605469 4.605469 2.25 7.5 2.25 L 16.5 2.25 C 19.394531 2.25 21.75 4.605469 21.75 7.5 Z M 21.75 16.5 "/>
<path style=" stroke:none;fill-rule:nonzero;fill:url(#linear1);" d="M 12 6 C 8.6875 6 6 8.6875 6 12 C 6 15.3125 8.6875 18 12 18 C 15.3125 18 18 15.3125 18 12 C 18 8.6875 15.3125 6 12 6 Z M 12 15.75 C 9.929688 15.746094 8.253906 14.070312 8.25 12 C 8.25 9.929688 9.933594 8.25 12 8.25 C 14.066406 8.25 15.75 9.929688 15.75 12 C 15.75 14.066406 14.066406 15.75 12 15.75 Z M 12 15.75 "/>
<path style=" stroke:none;fill-rule:nonzero;fill:url(#linear2);" d="M 19.25 5.550781 C 19.25 5.992188 18.890625 6.347656 18.449219 6.347656 C 18.007812 6.347656 17.652344 5.992188 17.652344 5.550781 C 17.652344 5.109375 18.007812 4.75 18.449219 4.75 C 18.890625 4.75 19.25 5.109375 19.25 5.550781 Z M 19.25 5.550781 "/>
</g>
</svg>
