<svg width="25" height="24" viewBox="0 0 25 24" fill="none" xmlns="http://www.w3.org/2000/svg">
<path fill-rule="evenodd" clip-rule="evenodd" d="M19.0695 5.63303C18.2379 4.79591 17.2484 4.13214 16.1584 3.68018C15.0684 3.22821 13.8995 2.99703 12.7195 3.00003C7.7715 3.00003 3.7435 7.02703 3.7415 11.977C3.7415 13.559 4.1545 15.103 4.9395 16.465L3.6665 21.116L8.4255 19.867C9.7419 20.5836 11.2167 20.9594 12.7155 20.96H12.7195C17.6665 20.96 21.6945 16.933 21.6965 11.983C21.6999 10.8035 21.4695 9.63502 21.0186 8.54509C20.5677 7.45516 19.9052 6.4654 19.0695 5.63303ZM12.7195 19.445H12.7165C11.38 19.4452 10.0681 19.0856 8.9185 18.404L8.6465 18.242L5.8225 18.983L6.5755 16.23L6.3985 15.948C5.65129 14.7585 5.25574 13.3818 5.2575 11.977C5.2595 7.86303 8.6065 4.51603 12.7225 4.51603C13.7028 4.51385 14.6737 4.70611 15.5792 5.08168C16.4846 5.45725 17.3066 6.00867 17.9975 6.70403C18.6921 7.39607 19.2427 8.21892 19.6174 9.12503C19.9921 10.0311 20.1835 11.0025 20.1805 11.983C20.1785 16.097 16.8315 19.445 12.7195 19.445ZM16.8125 13.856C16.5875 13.743 15.4855 13.201 15.2795 13.126C15.0745 13.051 14.9255 13.014 14.7755 13.238C14.6255 13.462 14.1955 13.967 14.0645 14.117C13.9335 14.267 13.8025 14.285 13.5785 14.173C13.3545 14.061 12.6315 13.824 11.7745 13.06C11.1075 12.465 10.6575 11.731 10.5265 11.506C10.3955 11.281 10.5125 11.16 10.6255 11.048C10.7265 10.948 10.8495 10.786 10.9615 10.655C11.0735 10.524 11.1105 10.431 11.1855 10.281C11.2605 10.131 11.2235 10 11.1665 9.88803C11.1105 9.77503 10.6615 8.67103 10.4745 8.22203C10.2935 7.78703 10.1085 7.84503 9.9705 7.83903C9.82758 7.83318 9.68455 7.83052 9.5415 7.83103C9.42776 7.83393 9.31584 7.86029 9.21276 7.90848C9.10969 7.95666 9.01768 8.02562 8.9425 8.11103C8.7365 8.33603 8.1575 8.87803 8.1575 9.98203C8.1575 11.086 8.9615 12.153 9.0735 12.303C9.1855 12.453 10.6555 14.718 12.9055 15.69C13.4415 15.921 13.8595 16.059 14.1845 16.163C14.7215 16.334 15.2105 16.309 15.5975 16.252C16.0285 16.188 16.9245 15.71 17.1115 15.186C17.2985 14.662 17.2985 14.213 17.2425 14.119C17.1865 14.025 17.0355 13.968 16.8125 13.856Z" fill="#00A884"/>
</svg>
