<?xml version="1.0" encoding="UTF-8"?>
<svg xmlns="http://www.w3.org/2000/svg" xmlns:xlink="http://www.w3.org/1999/xlink" width="24px" height="24px" viewBox="0 0 24 24" version="1.1">
<g id="surface1">
<path style=" stroke:none;fill-rule:evenodd;fill:rgb(95.686275%,26.27451%,21.176471%);fill-opacity:1;" d="M 22.980469 6.089844 C 22.328125 4.933594 21.621094 4.71875 20.183594 4.636719 C 18.746094 4.539062 15.132812 4.5 12.003906 4.5 C 8.867188 4.5 5.25 4.539062 3.816406 4.636719 C 2.378906 4.71875 1.671875 4.929688 1.015625 6.089844 C 0.34375 7.246094 0 9.238281 0 12.746094 L 0 12.757812 C 0 16.25 0.34375 18.257812 1.015625 19.402344 C 1.671875 20.558594 2.378906 20.769531 3.816406 20.867188 C 5.25 20.949219 8.867188 21 12.003906 21 C 15.132812 21 18.746094 20.949219 20.183594 20.867188 C 21.625 20.769531 22.332031 20.558594 22.980469 19.402344 C 23.65625 18.257812 24 16.25 24 12.757812 L 24 12.746094 C 24 9.238281 23.65625 7.246094 22.980469 6.089844 Z M 22.980469 6.089844 "/>
<path style=" stroke:none;fill-rule:evenodd;fill:rgb(98.039216%,98.039216%,98.039216%);fill-opacity:1;" d="M 9 17.25 L 9 8.25 L 16.5 12.75 Z M 9 17.25 "/>
</g>
</svg>
