<svg width="25" height="24" viewBox="0 0 25 24" fill="none" xmlns="http://www.w3.org/2000/svg">
<path d="M22.4885 7.431C22.3965 7.29808 22.2737 7.18943 22.1305 7.11436C21.9874 7.0393 21.8281 7.00006 21.6665 7H7.9995L6.8455 4.23C6.69419 3.86523 6.43797 3.55359 6.10933 3.33462C5.78068 3.11564 5.39442 2.99918 4.9995 3H2.6665V5H4.9995L9.7435 16.385C9.81949 16.5672 9.94768 16.7228 10.1119 16.8322C10.2762 16.9416 10.4691 17 10.6665 17H18.6665C19.0835 17 19.4565 16.741 19.6035 16.352L22.6035 8.352C22.6602 8.20063 22.6794 8.03776 22.6593 7.87735C22.6393 7.71695 22.5807 7.56379 22.4885 7.431ZM17.9735 15H11.3335L8.8335 9H20.2235L17.9735 15Z" fill="white"/>
<path d="M11.1665 21C11.9949 21 12.6665 20.3284 12.6665 19.5C12.6665 18.6716 11.9949 18 11.1665 18C10.3381 18 9.6665 18.6716 9.6665 19.5C9.6665 20.3284 10.3381 21 11.1665 21Z" fill="white"/>
<path d="M18.1665 21C18.9949 21 19.6665 20.3284 19.6665 19.5C19.6665 18.6716 18.9949 18 18.1665 18C17.3381 18 16.6665 18.6716 16.6665 19.5C16.6665 20.3284 17.3381 21 18.1665 21Z" fill="white"/>
</svg>
