<svg width="32" height="32" viewBox="0 0 32 32" fill="none" xmlns="http://www.w3.org/2000/svg">
<path d="M16.0001 2.66669C8.77208 2.66669 2.66675 8.77202 2.66675 16C2.66675 23.228 8.77208 29.3334 16.0001 29.3334C23.2281 29.3334 29.3334 23.228 29.3334 16C29.3334 8.77202 23.2281 2.66669 16.0001 2.66669ZM16.0001 9.33335C18.3027 9.33335 20.0001 11.0294 20.0001 13.3334C20.0001 15.6374 18.3027 17.3334 16.0001 17.3334C13.6987 17.3334 12.0001 15.6374 12.0001 13.3334C12.0001 11.0294 13.6987 9.33335 16.0001 9.33335ZM9.19208 22.3627C10.3881 20.6027 12.3827 19.4294 14.6667 19.4294H17.3334C19.6187 19.4294 21.6121 20.6027 22.8081 22.3627C21.1041 24.1867 18.6867 25.3334 16.0001 25.3334C13.3134 25.3334 10.8961 24.1867 9.19208 22.3627Z" fill="white"/>
</svg>
