<svg width="98" height="19" viewBox="0 0 98 19" fill="none" xmlns="http://www.w3.org/2000/svg">
<path fill-rule="evenodd" clip-rule="evenodd" d="M18.031 3.58806C17.7995 2.99024 17.4457 2.44734 16.9923 1.99411C16.5389 1.54089 15.9959 1.18733 15.398 0.956056C14.6983 0.693413 13.9592 0.551397 13.212 0.536056C12.249 0.494056 11.944 0.482056 9.502 0.482056C7.06 0.482056 6.747 0.482056 5.792 0.536056C5.04539 0.550612 4.30676 0.692657 3.608 0.956056C3.00994 1.18706 2.46676 1.54053 2.01333 1.99378C1.5599 2.44704 1.20623 2.99008 0.975 3.58806C0.712305 4.28767 0.570615 5.02689 0.556 5.77406C0.513 6.73606 0.5 7.04106 0.5 9.48406C0.5 11.9261 0.5 12.2371 0.556 13.1941C0.571 13.9421 0.712 14.6801 0.975 15.3811C1.20688 15.9788 1.5609 16.5216 2.01444 16.9748C2.46798 17.428 3.01106 17.7816 3.609 18.0131C4.30643 18.2863 5.04537 18.4384 5.794 18.4631C6.757 18.5051 7.062 18.5181 9.504 18.5181C11.946 18.5181 12.259 18.5181 13.214 18.4631C13.9611 18.4479 14.7002 18.3062 15.4 18.0441C15.9978 17.8122 16.5406 17.4584 16.994 17.005C17.4473 16.5517 17.8012 16.0088 18.033 15.4111C18.296 14.7111 18.437 13.9731 18.452 13.2251C18.495 12.2631 18.508 11.9581 18.508 9.51506C18.508 7.07206 18.508 6.76206 18.452 5.80506C18.4404 5.04733 18.2979 4.2973 18.031 3.58806ZM16.813 13.1201C16.8066 13.6964 16.7014 14.2673 16.502 14.8081C16.3518 15.1969 16.1219 15.5501 15.8271 15.8447C15.5322 16.1394 15.179 16.3691 14.79 16.5191C14.2552 16.7175 13.6904 16.8227 13.12 16.8301C12.17 16.8741 11.902 16.8851 9.466 16.8851C7.028 16.8851 6.779 16.8851 5.811 16.8301C5.24093 16.8231 4.67633 16.7179 4.142 16.5191C3.75169 16.37 3.397 16.1407 3.10089 15.846C2.80478 15.5513 2.57384 15.1977 2.423 14.8081C2.22645 14.2731 2.12131 13.7089 2.112 13.1391C2.069 12.1891 2.059 11.9211 2.059 9.48506C2.059 7.04806 2.059 6.79906 2.112 5.83006C2.11846 5.25408 2.22366 4.68348 2.423 4.14306C2.728 3.35406 3.353 2.73306 4.142 2.43106C4.67659 2.2332 5.24102 2.12802 5.811 2.12006C6.762 2.07706 7.029 2.06506 9.466 2.06506C11.903 2.06506 12.153 2.06506 13.12 2.12006C13.6904 2.12692 14.2554 2.23213 14.79 2.43106C15.1789 2.58133 15.5321 2.81126 15.827 3.10609C16.1218 3.40091 16.3517 3.75413 16.502 4.14306C16.6986 4.678 16.8037 5.24222 16.813 5.81206C16.856 6.76306 16.867 7.03006 16.867 9.46706C16.867 11.9031 16.867 12.1651 16.824 13.1211H16.813V13.1201ZM15.382 4.68408C15.382 5.27944 14.8994 5.76208 14.304 5.76208C13.7087 5.76208 13.226 5.27944 13.226 4.68408C13.226 4.08872 13.7087 3.60608 14.304 3.60608C14.8994 3.60608 15.382 4.08872 15.382 4.68408ZM6.22732 6.20846C7.09449 5.3413 8.27062 4.85413 9.49699 4.85413C10.7233 4.85413 11.8995 5.3413 12.7666 6.20846C13.6338 7.07563 14.121 8.25177 14.121 9.47813C14.121 10.7045 13.6338 11.8806 12.7666 12.7478C11.8995 13.615 10.7233 14.1021 9.49699 14.1021C8.27062 14.1021 7.09449 13.615 6.22732 12.7478C5.36016 11.8806 4.87299 10.7045 4.87299 9.47813C4.87299 8.25177 5.36016 7.07563 6.22732 6.20846ZM7.37284 11.6013C7.9362 12.1646 8.70028 12.4811 9.49699 12.4811C10.2937 12.4811 11.0578 12.1646 11.6211 11.6013C12.1845 11.0379 12.501 10.2738 12.501 9.47713C12.501 8.68042 12.1845 7.91634 11.6211 7.35298C11.0578 6.78962 10.2937 6.47313 9.49699 6.47313C8.70028 6.47313 7.9362 6.78962 7.37284 7.35298C6.80948 7.91634 6.49299 8.68042 6.49299 9.47713C6.49299 10.2738 6.80948 11.0379 7.37284 11.6013ZM27.4581 17H29.1111V3.586H27.4581V17ZM35.8469 17H38.2029V3.586H36.5879C36.6132 4.764 36.6892 8.678 36.8159 15.328L34.0989 3.586H31.7999V17H33.4529C33.4022 14.5553 33.3262 10.6793 33.2249 5.372L35.8469 17ZM44.853 7.538H46.335V6.683C46.335 5.94833 46.297 5.429 46.221 5.125C45.917 3.95967 45.0113 3.377 43.504 3.377C41.4267 3.377 40.388 4.41567 40.388 6.493C40.388 7.22767 40.502 7.823 40.73 8.279C40.958 8.735 41.357 9.26067 41.927 9.856L43.732 11.718C44.0487 12.0473 44.2703 12.2943 44.397 12.459C44.5363 12.611 44.6693 12.839 44.796 13.143C44.9227 13.4343 44.986 13.751 44.986 14.093C44.986 14.6123 44.834 15.024 44.53 15.328C44.226 15.6193 43.8143 15.765 43.295 15.765C42.649 15.765 42.212 15.575 41.984 15.195C41.756 14.8023 41.642 14.2703 41.642 13.599V12.364H40.065V13.846C40.065 14.948 40.3437 15.784 40.901 16.354C41.4583 16.9113 42.2563 17.19 43.295 17.19C44.131 17.19 44.8277 17 45.385 16.62C46.1957 16.0753 46.601 15.1887 46.601 13.96C46.601 12.8453 46.2147 11.8763 45.442 11.053L43.333 8.811C43.3077 8.773 43.219 8.678 43.067 8.526C42.915 8.374 42.82 8.27267 42.782 8.222C42.744 8.17133 42.668 8.08267 42.554 7.956C42.44 7.81667 42.3577 7.70267 42.307 7.614C42.269 7.52533 42.2183 7.41767 42.155 7.291C42.0917 7.15167 42.0473 7.01233 42.022 6.873C42.0093 6.73367 42.003 6.58167 42.003 6.417C42.003 5.34033 42.4717 4.802 43.409 4.802C43.9917 4.802 44.378 4.973 44.568 5.315C44.758 5.657 44.853 6.113 44.853 6.683V7.538ZM51.4742 5.087H54.0202V3.586H47.2752V5.087H49.8212V17H51.4742V5.087ZM59.2069 17H60.9549L57.9909 3.586H56.3189L53.4309 17H55.1599L55.6159 14.416H58.7319L59.2069 17ZM57.1359 6.075L58.4469 12.972H55.9009L57.1359 6.075ZM67.4713 17H68.8773V10.065H65.3433V11.509H67.3193V12.877C67.3193 13.7003 67.2623 14.283 67.1483 14.625C67.047 14.9543 66.895 15.2077 66.6923 15.385C66.3503 15.6763 65.945 15.822 65.4763 15.822C64.8303 15.822 64.3806 15.556 64.1273 15.024C63.9626 14.644 63.8803 13.409 63.8803 11.319V9.153C63.8803 7.37967 63.9753 6.208 64.1653 5.638C64.3553 5.068 64.8556 4.783 65.6663 4.783C66.6796 4.783 67.1863 5.34667 67.1863 6.474V7.69H68.7633V6.398C68.7633 5.95467 68.7253 5.581 68.6493 5.277C68.586 4.973 68.453 4.66267 68.2503 4.346C68.0476 4.02933 67.7246 3.78867 67.2813 3.624C66.838 3.45933 66.2743 3.377 65.5903 3.377C64.2603 3.377 63.361 3.757 62.8923 4.517C62.4363 5.277 62.2083 6.39167 62.2083 7.861V12.174C62.2083 13.6813 62.297 14.739 62.4743 15.347C62.8543 16.5757 63.722 17.19 65.0773 17.19C65.9893 17.19 66.7873 16.8163 67.4713 16.069V17ZM76.7341 17H78.4821L76.0881 10.92C77.2914 10.654 77.8931 9.45067 77.8931 7.31C77.8931 5.84067 77.6018 4.85267 77.0191 4.346C76.4491 3.83933 75.5561 3.586 74.3401 3.586H71.4141V17H73.0671V11.11H74.4541L76.7341 17ZM73.0671 9.799V5.106H74.2641C74.9861 5.106 75.4928 5.25167 75.7841 5.543C76.0754 5.82167 76.2211 6.39167 76.2211 7.253C76.2211 8.279 76.1008 8.963 75.8601 9.305C75.6194 9.63433 75.0811 9.799 74.2451 9.799H73.0671ZM85.1278 17H86.8758L83.9118 3.586H82.2398L79.3518 17H81.0808L81.5368 14.416H84.6528L85.1278 17ZM83.0568 6.075L84.3678 12.972H81.8218L83.0568 6.075ZM95.4822 17H97.0212V3.586H94.4752L92.6322 15.556L90.7512 3.586H88.2432V17H89.8772C89.8519 16.2653 89.7632 12.2183 89.6112 4.859L91.6062 17H93.7152L95.7102 4.859L95.4822 17Z" fill="url(#paint0_radial_288_717)"/>
<defs>
<radialGradient id="paint0_radial_288_717" cx="0" cy="0" r="1" gradientUnits="userSpaceOnUse" gradientTransform="translate(2.25621 16.8668) rotate(-0.561207) scale(139.362 22.198)">
<stop stop-color="#FED576"/>
<stop offset="0.2634" stop-color="#F47133"/>
<stop offset="0.6091" stop-color="#BC3081"/>
<stop offset="1" stop-color="#4C63D2"/>
</radialGradient>
</defs>
</svg>
